<svg xmlns="http://www.w3.org/2000/svg" xmlns:xlink="http://www.w3.org/1999/xlink" version="1.1" x="0px" y="0px" viewBox="0 0 128 160" style="enable-background:new 0 0 128 128;" xml:space="preserve"><g><path d="M33.4120827,87.4785004c0.660202,0.346199,1.3145027,0.5220032,1.9443016,0.5214996   c0.9141006,0,1.7286148-0.3691025,2.2939987-1.0395966c0.4541016-0.539505,0.9414024-1.5073013,0.6748009-3.050705   l-0.7450981-4.3330002l3.1591988-3.069397c1.0985985-1.0653992,1.5057983-2.3602982,1.1200981-3.5522003   c-0.3866997-1.1923981-1.4776001-2.0019989-2.9941978-2.221199l-4.3730011-0.6333008l-1.955101-3.9463043   C31.8593845,64.785202,30.7528839,64,29.5,64c-1.2539158,0-2.3613148,0.7855988-3.0371151,2.1542969l-1.9540997,3.9468002   l-4.3721008,0.6328049c-1.5175991,0.2192001-2.6093998,1.0292969-2.9960995,2.2221985   c-0.3866997,1.1922989,0.0214996,2.4868011,1.1191998,3.5506973l3.160099,3.0703049l-0.7440987,4.3295975   c-0.267601,1.5445023,0.2178001,2.5127029,0.6728001,3.053299c0.9531994,1.1338043,2.6191998,1.3671036,4.237299,0.5185013   L29.5,85.4287033L33.4120827,87.4785004z M24.8280849,83.3603973l0.8906994-5.1835938l-3.7705994-3.6636047l5.2129002-0.7548981   L29.5,69.0342026l2.3397846,4.7245941l5.2119999,0.7544022l-3.7705002,3.6640015l0.8916016,5.1840973L29.5,80.9131012   L24.8280849,83.3603973z"/><path d="M18.8495846,60.0996017l-0.6289005-3.8340034l2.6494007-2.7010994   c1.0049152-1.025898,1.3633003-2.2656975,0.9843998-3.4013977c-0.3759995-1.1235008-1.3866997-1.8887024-2.7724838-2.0982018   l-3.5849161-0.5458984l-1.6200848-3.4350014C12.9892845,42.2030983,11.5702848,42,11.0010004,42   c-0.5703154,0-1.9903154,0.2030983-2.875,2.0839996L6.5048847,47.519001l-3.5849998,0.5454979   c-1.3877,0.2103996-2.3993998,0.9760017-2.7743998,2.100502c-0.3789,1.1362991-0.019485,2.3754997,0.9863,3.3998985   l2.6485,2.7006989l-0.6288998,3.8320999c-0.2442,1.4794006,0.225615,2.403801,0.6630998,2.9184036   C4.729485,64.0957031,6.3144851,64.3130035,7.8153849,63.4888L11,61.7368011L14.1854849,63.4888   c0.6171999,0.3392982,1.2343998,0.5112,1.835,0.5112c0.8565159,0,1.625-0.3485985,2.1630993-0.9818993   C18.6200848,62.5043983,19.0907841,61.5811005,18.8495846,60.0996017z M13.9452848,54.9121017L14.6444845,59.1763L11,57.1713982   l-3.6426153,2.0010033l0.6983004-4.2602997l-3.0576849-3.1177025l4.2158842-0.6415977L11.0010004,47.3638l1.7870846,3.7890015   l4.2129145,0.6441002L13.9452848,54.9121017z"/><path d="M107.8642807,70.733902l-4.3731003-0.6328049l-1.9530945-3.9458008C100.8612823,64.7855988,99.7538834,64,98.5,64   c-1.2529144,0-2.3594208,0.785202-3.037117,2.153801l-1.955101,3.9468002l-4.3730011,0.6333008   c-1.5166016,0.2192001-2.6074982,1.028801-2.9942017,2.221199c-0.3856964,1.1919022,0.0215073,2.4868011,1.1192017,3.5516968   l3.1601028,3.0699005l-0.7451019,4.3325043c-0.2666016,1.5438995,0.2207031,2.5116959,0.6748047,3.0516968   c0.9550934,1.1308975,2.619194,1.3662033,4.239296,0.517601L98.5,85.4287033l3.9140854,2.0497971   C103.0741806,87.8246994,103.7284851,88,104.3583832,88c0.9141006,0,1.7285004-0.3691025,2.2929993-1.0400009   c0.4550018-0.5401001,0.9403992-1.5083008,0.6727982-3.0503006l-0.7440948-4.3325958l3.1591949-3.0693054   c1.0986023-1.0648956,1.5067978-2.3593979,1.1201019-3.5516968   C110.4726791,71.7631989,109.3808823,70.9531021,107.8642807,70.733902z M102.2812805,78.1768036l0.8906021,5.1835938   L98.5,80.9131012l-4.6729202,2.4481964l0.8917007-5.1840973l-3.7705994-3.6640015l5.211998-0.7544022L98.5,69.0342026   l2.3388824,4.7240982l5.2128983,0.7548981L102.2812805,78.1768036z"/><path d="M127.8544846,50.1650009c-0.375-1.1245003-1.3867035-1.8901024-2.7733994-2.1001015l-3.5860062-0.5458984   L119.875,44.0863991C118.9892807,42.2030983,117.5692825,42,116.9990005,42c-0.5693207,0-1.9883194,0.2030983-2.8759995,2.0844994   l-1.6201172,3.4345016l-3.5839996,0.5454979c-1.3867035,0.2098999-2.3973999,0.9751015-2.7733994,2.0986023   c-0.3789063,1.1357002-0.0204849,2.3754997,0.9853973,3.4017982l2.6483994,2.7006989l-0.6288986,3.8365021   c-0.2412033,1.4790001,0.2294998,2.402298,0.6660004,2.9165001c0.9169998,1.0761032,2.5,1.2923965,3.9981003,0.4701996   L117,61.7368011l3.1854782,1.7524986C120.802681,63.8280983,121.4198837,64,122.0204849,64   c0.8583984,0,1.6269989-0.3490982,2.1649933-0.9838982c0.4375229-0.5146027,0.9073029-1.439003,0.6631012-2.9165001   l-0.6288986-3.8340034l2.6474991-2.6996994C127.8740005,52.5405006,128.2333832,51.3013,127.8544846,50.1650009z    M119.9442825,54.9121017l0.6993027,4.2636986L117,57.1713982l-3.644516,2.0010033l0.6991959-4.2602997l-3.0575943-3.1177025   l4.214798-0.6415977l1.787117-3.7890015l1.7870789,3.7890015L123,51.7969017L119.9442825,54.9121017z"/><path d="M64,53c9.3905869,0,17-7.6113014,17-17.0019989C81,26.6089001,73.3905869,19,64,19   c-9.3867149,0-17,7.6089001-17,16.9980011C47,45.3886986,54.6132851,53,64,53z M64,23c7.1679993,0,13,5.8311005,13,12.9980011   C77,43.1674995,71.1679993,49,64,49s-13-5.8325005-13-13.0019989C51,28.8311005,56.8320007,23,64,23z"/><path d="M75.1747818,95.2798004l5.2558975-5.3628006c1.3662033-1.3916016,1.8730011-3.0190964,1.3916016-4.4653015   c-0.4756012-1.4247971-1.820282-2.4048004-3.6884995-2.6889954l-7.1942978-1.092804L67.7070007,74.8125   C66.5087814,72.2743988,64.7157822,72,64.0009995,72c-0.7168159,0-2.5108147,0.2743988-3.7041168,2.8134995l-3.2343979,6.8559036   l-7.1953011,1.0932999c-1.8691826,0.2841949-3.214901,1.2650986-3.6894989,2.6908951   c-0.482399,1.4468002,0.0253983,3.0737,1.389698,4.4618988l5.2588005,5.3647995l-1.2431831,7.5918045   c-0.3369179,2.0424957,0.2646828,3.2635956,0.828083,3.9281998c1.152401,1.3583984,3.1669998,1.5878983,5.1748009,0.483902   l6.4151154-3.5274048l6.4130859,3.5274048c0.8631973,0.4750977,1.7089157,0.716301,2.5116959,0.7157974   c1.0605011,0,2.0057983-0.4257965,2.6621017-1.1996994c0.5643997-0.6646042,1.1669998-1.8852997,0.8310013-3.9253006   L75.1747818,95.2798004z M72.4716797,103.5229034c0.0215073,0.1308975,0.0332031,0.2451935,0.0390015,0.3427963   c-0.0516815-0.0239029-0.107399-0.0526962-0.1688995-0.0864029l-8.3407822-4.5868988l-8.3418159,4.5864029   c-0.0615005,0.033699-0.1171837,0.0619965-0.1679993,0.0863953c0.0048981-0.0980988,0.017601-0.2123947,0.0391006-0.3436966   l1.5713005-9.594696L50.4218826,87.1138c-0.122097-0.1255035-0.212883-0.2359009-0.2773972-0.3272018   c0.0868988-0.0248947,0.194397-0.0493011,0.3242989-0.0688019l9.3027-1.4135971l4.1435165-8.7865982   c0.0302811-0.0634995,0.0585823-0.1205978,0.086998-0.1718979c0.0282822,0.051796,0.0575867,0.1093979,0.0877838,0.1737976   l4.1407013,8.7842026l9.3016968,1.414093c0.1299057,0.0195007,0.2373047,0.0439072,0.3233032,0.0688019   c-0.0654831,0.0918045-0.1563034,0.2027054-0.280304,0.3291016l-6.6757965,6.8115005L72.4716797,103.5229034z"/><path d="M36.7636833,65.6747971c1.0741997-1.934597,2.3260994-3.6478958,3.7705002-5.1312981   c3.1650009-3.2509995,7.3515015-5.4771004,12.4980011-6.6699982C51.6142845,53,50.2948837,51.9813995,49.1259995,50.8065987   c-6.8731155,2.2344017-11.5811157,6.2359009-14.7813148,11.1631012c0.7011986,0.6607018,1.3096008,1.4639015,1.777401,2.4097023   L36.7636833,65.6747971z"/><path d="M33.222683,92.8384018c-0.6534004,0-1.1739006-0.5166016-1.184597-0.9628983   c-0.0059013-0.2168045-0.0039024-0.422905-0.0088005-0.6377029c-0.1582012-0.0718002-0.3164005-0.1338043-0.4736004-0.2157974   l-2.0566845-1.0777054l-1.4853153,0.7784042c0.0067997,0.4217987,0.0145988,0.8426971,0.0253983,1.259201   c0.0703011,2.6850967,2.4394016,4.8564987,5.1835995,4.8564987h15.2959023l0.0331993-0.205101l-3.7206993-3.794899H33.222683z"/><path d="M74.743187,54.0102997c5.0184937,1.2504005,9.1405945,3.4965019,12.309494,6.7285004   c1.5137024,1.5443993,2.8339996,3.339798,3.9659042,5.3740005l0.8592987-1.7343979   c0.3993988-0.8071022,0.9062958-1.5054016,1.4794998-2.1074028c-3.2323837-4.9243011-7.9277039-8.9556007-14.6875-11.2729988   C77.4892807,52.1533012,76.1679993,53.1571999,74.743187,54.0102997z"/><path d="M96.445282,91.0214996c-0.1503983,0.0791016-0.3076019,0.1274033-0.4598999,0.1962967   c-0.0029984,0.2304001,0.0009003,0.4531021-0.0039978,0.6855011c-0.0087051,0.4234009-0.5302048,0.9351044-1.1650009,0.9351044   H83.1679993l-3.7188187,3.7943954l0.0332031,0.2056046h15.3339996c2.7401962,0,5.1112976-2.171402,5.1641006-4.8564987   c0.0077972-0.4150009,0.0126953-0.8339996,0.0156021-1.2539063l-1.4950867-0.783699L96.445282,91.0214996z"/></g><text x="0" y="143" fill="#000000" font-size="5px" font-weight="bold" font-family="'Helvetica Neue', Helvetica, Arial-Unicode, Arial, Sans-serif">Created by priyanka</text><text x="0" y="148" fill="#000000" font-size="5px" font-weight="bold" font-family="'Helvetica Neue', Helvetica, Arial-Unicode, Arial, Sans-serif">from the Noun Project</text></svg>