<svg xmlns="http://www.w3.org/2000/svg" viewBox="0 0 128 89"><defs><style>.cls-1{fill:#fff;}</style></defs><title>Zasób 2</title><g id="Warstwa_2" data-name="Warstwa 2"><g id="Warstwa_1-2" data-name="Warstwa 1"><path class="cls-1" d="M33.41,68.48a4.28,4.28,0,0,0,2,.52,2.93,2.93,0,0,0,2.29-1,3.59,3.59,0,0,0,.68-3l-.75-4.33,3.16-3.07a3.22,3.22,0,0,0-1.87-5.78l-4.38-.63-2-4a3.47,3.47,0,0,0-3-2.15,3.47,3.47,0,0,0-3,2.15l-1.95,4-4.37.63a3.22,3.22,0,0,0-1.88,5.78l3.16,3.07-.74,4.33a3.59,3.59,0,0,0,.67,3,3.34,3.34,0,0,0,4.24.52l3.91-2Zm-8.58-4.12.89-5.18L22,55.51l5.21-.75L29.5,50l2.34,4.73,5.21.75-3.77,3.67.89,5.18L29.5,61.91Z"/><path class="cls-1" d="M18.85,41.1l-.63-3.83,2.65-2.71a3.09,3.09,0,0,0-1.79-5.5l-3.58-.54-1.62-3.44A3.18,3.18,0,0,0,11,23a3.16,3.16,0,0,0-2.87,2.08L6.51,28.52l-3.59.54A3.24,3.24,0,0,0,.15,31.17a3.31,3.31,0,0,0,1,3.39l2.65,2.71L3.15,41.1A3.46,3.46,0,0,0,3.82,44a3.12,3.12,0,0,0,4,.47L11,42.74l3.19,1.75A3.76,3.76,0,0,0,16,45a2.81,2.81,0,0,0,2.17-1A3.49,3.49,0,0,0,18.85,41.1ZM14,35.91l.7,4.27-3.65-2-3.64,2,.7-4.26L5,32.79l4.22-.64L11,28.36l1.79,3.79L17,32.8Z"/><path class="cls-1" d="M107.87,51.73l-4.38-.63-1.95-3.94a3.22,3.22,0,0,0-6.08,0l-1.95,4-4.37.63a3.22,3.22,0,0,0-1.88,5.78l3.16,3.07-.74,4.33a3.59,3.59,0,0,0,.67,3,3.34,3.34,0,0,0,4.24.52l3.91-2,3.92,2a4.25,4.25,0,0,0,1.94.52,2.93,2.93,0,0,0,2.29-1,3.59,3.59,0,0,0,.68-3l-.75-4.33,3.16-3.07a3.22,3.22,0,0,0-1.87-5.78Zm-5.59,7.45.89,5.18L98.5,61.91l-4.67,2.45.89-5.18L91,55.51l5.21-.75L98.5,50l2.34,4.73,5.21.75Z"/><path class="cls-1" d="M127.86,31.17a3.27,3.27,0,0,0-2.78-2.11l-3.58-.54-1.62-3.43a3,3,0,0,0-5.76,0l-1.62,3.44-3.58.54a3.25,3.25,0,0,0-2.77,2.1,3.32,3.32,0,0,0,1,3.4l2.65,2.71-.63,3.83a3.46,3.46,0,0,0,.67,2.92,3.14,3.14,0,0,0,4,.47L117,42.74l3.19,1.75A3.76,3.76,0,0,0,122,45a2.81,2.81,0,0,0,2.17-1,3.49,3.49,0,0,0,.66-2.92l-.63-3.83,2.65-2.7A3.31,3.31,0,0,0,127.86,31.17ZM120,35.91l.7,4.27-3.65-2-3.64,2,.7-4.26L111,32.79l4.21-.64L117,28.36l1.79,3.79,4.21.65Z"/><path class="cls-1" d="M64,34A17,17,0,1,0,47,17,17,17,0,0,0,64,34ZM64,4A13,13,0,1,1,51,17,13,13,0,0,1,64,4Z"/><path class="cls-1" d="M75.18,76.28l5.25-5.36a4.39,4.39,0,0,0,1.39-4.47,4.3,4.3,0,0,0-3.68-2.69l-7.2-1.09-3.23-6.86C66.51,53.27,64.72,53,64,53s-2.51.27-3.7,2.81l-3.24,6.86-7.19,1.09a4.31,4.31,0,0,0-3.69,2.69,4.43,4.43,0,0,0,1.39,4.47l5.26,5.36-1.25,7.59a4.67,4.67,0,0,0,.83,3.93c1.16,1.36,3.17,1.59,5.18.48L64,84.76l6.42,3.52a5.15,5.15,0,0,0,2.51.72,3.44,3.44,0,0,0,2.66-1.2,4.61,4.61,0,0,0,.83-3.92Zm-2.71,8.24a1.56,1.56,0,0,1,0,.35l-.17-.09L64,80.19l-8.34,4.59-.17.09c0-.1,0-.22,0-.35l1.57-9.59-6.68-6.82a2.18,2.18,0,0,1-.27-.32,1.73,1.73,0,0,1,.32-.07l9.3-1.42,4.15-8.78.08-.17.09.17,4.14,8.78,9.3,1.42a2.09,2.09,0,0,1,.33.07c-.07.09-.16.2-.28.33L70.9,74.93Z"/><path class="cls-1" d="M36.77,46.67a23.94,23.94,0,0,1,3.77-5.13A24.86,24.86,0,0,1,53,34.87a21.39,21.39,0,0,1-3.9-3.06A26.9,26.9,0,0,0,34.35,43a8.23,8.23,0,0,1,1.77,2.41Z"/><path class="cls-1" d="M33.22,73.84a1.17,1.17,0,0,1-1.18-1c0-.22,0-.43,0-.64L31.56,72,29.5,70.94,28,71.72c0,.42,0,.85,0,1.26a5.15,5.15,0,0,0,5.18,4.86h15.3l0-.21-3.72-3.79Z"/><path class="cls-1" d="M74.75,35a25.42,25.42,0,0,1,12.3,6.73,24.68,24.68,0,0,1,4,5.37l.86-1.73a8.57,8.57,0,0,1,1.48-2.11A27.86,27.86,0,0,0,78.67,32,21.27,21.27,0,0,1,74.75,35Z"/><path class="cls-1" d="M96.45,72c-.15.08-.31.13-.46.2,0,.23,0,.45,0,.68a1.15,1.15,0,0,1-1.16.94H83.17l-3.72,3.79,0,.21H94.82A5.12,5.12,0,0,0,100,73c0-.41,0-.83,0-1.25l-1.5-.79Z"/></g></g></svg>